<svg width="209" height="47" viewBox="0 0 209 47" fill="none" xmlns="http://www.w3.org/2000/svg">
<path d="M198.181 22.6345C198.481 22.6364 198.782 22.6365 199.082 22.6369C199.648 22.6378 200.215 22.6403 200.782 22.6433C201.549 22.6473 202.316 22.6489 203.083 22.6507C204.288 22.6535 205.494 22.6595 206.699 22.6649C206.699 24.3256 206.699 25.9862 206.699 27.6971C205.574 27.7 205.574 27.7 204.426 27.703C203.952 27.7049 203.477 27.7069 203.002 27.7092C202.248 27.7128 201.494 27.7161 200.74 27.7175C200.191 27.7185 199.642 27.7205 199.093 27.7238C198.803 27.7255 198.512 27.7266 198.221 27.7266C197.948 27.7265 197.674 27.7279 197.4 27.7303C197.252 27.7312 197.104 27.7307 196.956 27.7301C196.314 27.7351 196.314 27.7351 195.791 28.0727C195.538 28.3489 195.472 28.5642 195.457 28.9317C195.474 29.3353 195.542 29.5585 195.791 29.8752C196.187 30.1525 196.465 30.2189 196.94 30.2107C197.001 30.2109 197.062 30.2111 197.124 30.2112C197.255 30.2114 197.387 30.211 197.518 30.2099C197.727 30.2082 197.937 30.2085 198.146 30.2093C198.666 30.2109 199.187 30.2096 199.707 30.2077C200.147 30.2061 200.586 30.206 201.025 30.2079C201.229 30.2082 201.432 30.2064 201.636 30.2045C203.436 30.2031 205.106 30.7676 206.413 32.0522C207.583 33.2619 208.004 34.7759 207.992 36.4253C207.944 38.1134 207.142 39.6417 205.949 40.8045C205.264 41.4009 204.525 41.8494 203.657 42.1177C203.604 42.1362 203.552 42.1547 203.497 42.1737C202.871 42.3742 202.26 42.3734 201.611 42.3686C201.488 42.3686 201.366 42.3686 201.244 42.3687C200.914 42.3688 200.585 42.3675 200.256 42.3659C199.911 42.3645 199.565 42.3644 199.22 42.3641C198.568 42.3634 197.915 42.3615 197.263 42.3593C196.519 42.3568 195.776 42.3555 195.033 42.3544C193.505 42.352 191.977 42.3479 190.449 42.3431C190.449 40.7072 190.449 39.0714 190.449 37.386C190.796 37.3853 191.144 37.3846 191.502 37.3838C192.65 37.3813 193.798 37.3772 194.946 37.3722C195.642 37.3692 196.338 37.3667 197.034 37.3656C197.641 37.3646 198.248 37.3626 198.854 37.3593C199.176 37.3576 199.497 37.3565 199.818 37.3565C200.121 37.3566 200.423 37.3552 200.726 37.3528C200.836 37.3522 200.947 37.3521 201.058 37.3525C201.644 37.3544 202.116 37.3468 202.618 37.0104C202.958 36.6664 202.95 36.3241 202.954 35.8618C202.932 35.655 202.932 35.655 202.797 35.5279C202.363 35.298 201.943 35.2612 201.466 35.2638C201.405 35.2635 201.344 35.2632 201.281 35.263C201.149 35.2624 201.017 35.2623 200.885 35.2624C200.674 35.2624 200.464 35.2615 200.254 35.2602C199.657 35.2567 199.059 35.2549 198.462 35.2544C198.096 35.254 197.73 35.2521 197.363 35.2495C197.225 35.2487 197.087 35.2485 196.948 35.2489C195.859 35.252 194.814 35.1589 193.834 34.6258C193.785 34.5999 193.736 34.5741 193.686 34.5474C193.257 34.3144 192.884 34.0391 192.526 33.7057C192.465 33.6503 192.403 33.595 192.34 33.5379C191.827 33.0518 191.469 32.5115 191.116 31.9031C191.084 31.8491 191.052 31.7951 191.019 31.7394C190.274 30.3716 190.254 28.4951 190.671 27.0212C191.265 25.2404 192.467 23.9955 194.108 23.1672C195.443 22.5999 196.76 22.624 198.181 22.6345Z" fill="#DAEFF4"/>
<path d="M175.816 14.8037C177.432 14.8037 179.048 14.8037 180.713 14.8037C180.713 17.4062 180.713 20.0086 180.713 22.69C183.211 22.69 185.709 22.69 188.282 22.69C188.282 24.3506 188.282 26.0112 188.282 27.7222C185.785 27.7222 183.287 27.7222 180.713 27.7222C180.72 28.7415 180.726 29.7608 180.732 30.811C180.734 31.2907 180.734 31.2907 180.736 31.78C180.738 32.071 180.738 32.071 180.741 32.362C180.742 32.4899 180.742 32.6178 180.743 32.7457C180.744 34.1209 180.962 35.2893 181.922 36.3272C182.811 37.1325 183.831 37.3682 185 37.3743C185.083 37.3756 185.167 37.3768 185.254 37.3781C185.563 37.3824 185.872 37.3849 186.181 37.3875C187.221 37.3992 187.221 37.3992 188.282 37.411C188.282 39.0468 188.282 40.6827 188.282 42.3681C187.519 42.3712 186.755 42.3743 185.968 42.3775C185.729 42.3788 185.49 42.3802 185.243 42.3816C185.051 42.3821 184.859 42.3824 184.666 42.3828C184.569 42.3835 184.471 42.3843 184.371 42.3851C182.357 42.3855 180.498 41.6923 178.933 40.4153C178.867 40.3623 178.801 40.3094 178.733 40.2548C177.369 39.088 176.39 37.3501 175.964 35.6084C175.951 35.5578 175.938 35.5071 175.925 35.4549C175.76 34.6989 175.797 33.9267 175.801 33.1572C175.802 33.0001 175.802 32.843 175.802 32.6859C175.803 32.2748 175.804 31.8638 175.806 31.4527C175.807 31.0323 175.808 30.6119 175.809 30.1915C175.81 29.3684 175.813 28.5453 175.816 27.7222C175.008 27.7222 174.2 27.7222 173.367 27.7222C173.367 26.0615 173.367 24.4009 173.367 22.69C174.175 22.69 174.983 22.69 175.816 22.69C175.816 20.0875 175.816 17.485 175.816 14.8037Z" fill="#DAEFF4"/>
<path d="M159.907 22.0907C161.486 21.6981 163.364 21.7716 164.923 22.2147C164.972 22.2283 165.022 22.2417 165.072 22.2557C167.66 22.9939 169.647 24.7241 170.95 27.0653C171.787 28.6167 172.148 30.2782 172.143 32.038C172.143 32.2156 172.145 32.3935 172.147 32.5712C172.152 33.6123 172.051 34.6672 171.703 35.6542C171.684 35.7084 171.665 35.7624 171.646 35.8182C170.659 38.6034 168.783 40.6883 166.154 41.955C165.658 42.1818 165.152 42.3519 164.626 42.493C164.534 42.5184 164.443 42.5441 164.349 42.5702C162.837 42.9108 160.982 42.8896 159.506 42.4178C159.449 42.4001 159.392 42.3824 159.333 42.3641C158.021 41.9453 156.844 41.289 155.795 40.3905C155.739 40.3429 155.739 40.3423 155.682 40.2938C154.455 39.2483 153.595 37.8981 152.975 36.41C152.952 36.3551 152.928 36.2996 152.904 36.243C152.711 35.7779 152.584 35.3156 152.479 34.8231C152.464 34.7527 152.448 34.6818 152.432 34.6092C151.917 32.2578 152.22 29.7555 153.249 27.5887C153.281 27.5207 153.313 27.4527 153.347 27.3827C153.62 26.8197 153.93 26.3155 154.311 25.8192C154.367 25.7462 154.423 25.6727 154.48 25.5975C155.803 23.9168 157.668 22.6795 159.728 22.1395C159.787 22.1236 159.846 22.1071 159.907 22.0907ZM165.196 27.9413C163.316 26.5491 160.276 26.4856 158.682 28.411C158.634 28.4746 158.587 28.5368 158.541 28.5985C157.514 29.7737 157.212 31.2434 157.254 32.7792C157.321 34.1404 157.971 35.5104 158.953 36.4393C159.973 37.3238 161.091 37.7533 162.431 37.7001C162.521 37.6954 162.609 37.6909 162.696 37.6864C162.759 37.6857 162.819 37.6851 162.88 37.6844C163.882 37.6368 165.026 36.9759 165.693 36.2489C165.753 36.1785 165.753 36.1782 165.812 36.1092C166.912 34.8394 167.249 33.2899 167.166 31.6385C167.027 30.1906 166.293 28.8628 165.196 27.9413Z" fill="#DAEFF4"/>
<path d="M141.831 15.9352C143.055 15.9225 144.316 16.1017 145.416 16.6793C145.502 16.7228 145.503 16.723 145.591 16.7672C146.06 17.0097 146.487 17.2891 146.892 17.6325C146.954 17.6848 147.015 17.7377 147.079 17.7916C148.297 18.8623 149.163 20.1242 149.637 21.6881C149.662 21.7656 149.687 21.8437 149.713 21.9235C150.181 23.6637 149.904 25.5485 149.061 27.1139C148.645 27.8434 148.124 28.4366 147.484 28.9743C147.41 29.0482 147.335 29.1228 147.263 29.1989C147.299 29.2244 147.334 29.2507 147.371 29.277C148.42 30.0443 149.094 31.0657 149.562 32.2789C149.593 32.3572 149.624 32.4356 149.655 32.5163C150.057 33.7478 150.02 35.3256 149.637 36.5592C149.617 36.6318 149.598 36.7051 149.577 36.7799C148.956 38.8855 147.515 40.4307 145.672 41.5163C144.998 41.8827 144.295 42.0944 143.552 42.2682C143.474 42.2875 143.473 42.2875 143.394 42.3073C143.128 42.3522 142.867 42.3533 142.599 42.3522C142.541 42.3523 142.482 42.3521 142.422 42.3522C142.227 42.3523 142.033 42.3516 141.838 42.3512C141.696 42.3512 141.554 42.3512 141.412 42.3512C141.032 42.3512 140.652 42.3508 140.271 42.3502C139.915 42.3498 139.558 42.3503 139.201 42.3502C138.158 42.3498 137.115 42.3483 136.071 42.3473C133.74 42.3458 131.409 42.344 129.008 42.3424V15.9801C131.302 15.9724 133.596 15.9647 135.96 15.9567C136.682 15.9533 137.404 15.9495 138.147 15.9459C139.035 15.9442 139.035 15.9443 139.452 15.944C139.741 15.9436 140.029 15.9431 140.317 15.9411C140.687 15.9384 141.058 15.9376 141.428 15.9381C141.562 15.938 141.697 15.9367 141.831 15.9352ZM141.731 31.7936C141.475 31.7935 141.218 31.7943 140.962 31.7965C140.779 31.7982 140.597 31.7989 140.414 31.7995C139.934 31.8002 139.454 31.802 138.975 31.8053C138.38 31.8094 137.785 31.8113 137.19 31.8131C136.318 31.8157 136.317 31.8157 134.276 31.8278V37.0856C135.16 37.0869 136.045 37.0878 136.929 37.0885C137.56 37.089 138.192 37.0894 138.823 37.0905C139.259 37.0912 139.694 37.0922 140.13 37.0924C140.314 37.0925 140.498 37.0923 140.683 37.0924C140.948 37.093 141.214 37.0943 141.479 37.0944H142.165C142.707 37.0949 143.203 36.9106 143.643 36.5885C144.222 36.0932 144.623 35.4756 144.688 34.6989C144.7 33.8572 144.55 33.2529 143.985 32.6266C143.397 32.0507 142.779 31.7954 141.958 31.7907C141.881 31.7918 141.806 31.7925 141.731 31.7936ZM141.664 21.2038C141.41 21.2036 141.156 21.2035 140.901 21.2057C140.72 21.2073 140.539 21.2091 140.358 21.2096C139.883 21.2104 139.408 21.2122 138.933 21.2155C138.343 21.2196 137.753 21.2215 137.164 21.2233C136.299 21.2259 136.299 21.2259 134.276 21.2379V26.4948C135.268 26.5005 136.259 26.5075 137.251 26.5104C137.807 26.512 138.364 26.5135 138.92 26.5172C139.365 26.5203 139.809 26.5221 140.254 26.5231C140.443 26.5234 140.632 26.5245 140.82 26.525C141.091 26.5274 141.362 26.5297 141.633 26.5299C141.759 26.5299 141.76 26.529 141.884 26.5289C142.703 26.5404 143.279 26.3513 143.917 25.8229C144.5 25.242 144.661 24.5623 144.697 23.7633C144.684 23.0401 144.39 22.4809 143.903 21.9625C143.349 21.4321 142.641 21.2052 141.889 21.2008C141.812 21.2019 141.738 21.2027 141.664 21.2038Z" fill="#DAEFF4"/>
<path fill-rule="evenodd" clip-rule="evenodd" d="M102.182 30.2133C102.182 34.2441 102.182 38.2748 102.182 42.3056C100.55 42.3056 98.9173 42.3056 97.2848 42.3056C97.2848 38.5502 97.2848 34.7949 97.2848 31.0395C97.0483 28.7097 95.7744 27.4579 93.4632 27.2841C91.4673 27.4557 90.2552 28.5322 89.8272 30.5137C89.7901 34.4443 89.7777 38.3749 89.7901 42.3056C88.1329 42.3056 86.4756 42.3056 84.8184 42.3056C84.8184 33.1175 84.8184 23.9293 84.8184 14.7412C86.4756 14.7412 88.1329 14.7412 89.7901 14.7412C89.7777 17.6455 89.7901 20.5496 89.8272 23.4537C91.4488 22.2842 93.2421 21.9212 95.2071 22.3646C99.2675 23.4072 101.593 26.0235 102.182 30.2133Z" fill="#DAEFF4"/>
<path fill-rule="evenodd" clip-rule="evenodd" d="M72.9455 21.8763C76.4038 21.5808 79.2854 22.7324 81.5904 25.3313C81.8802 25.6996 82.14 26.0876 82.3696 26.4954C81.1977 27.7567 79.998 28.996 78.7706 30.2132C77.6532 27.6832 75.7362 26.6441 73.0197 27.0963C70.7903 27.9527 69.5659 29.5925 69.3466 32.0158C69.2343 35.055 70.6318 36.9201 73.5392 37.6113C75.879 37.792 77.6105 36.8532 78.7335 34.7948C79.9569 35.9954 81.1688 37.2097 82.3696 38.4375C80.3294 41.2539 77.5715 42.6684 74.0957 42.681C69.6044 42.4412 66.5126 40.213 64.8201 35.9965C63.534 31.3874 64.61 27.4443 68.048 24.1671C69.4888 22.9747 71.1213 22.2111 72.9455 21.8763Z" fill="#DAEFF4"/>
<path d="M113.387 21.8768C116.558 21.6734 119.266 22.6996 121.512 24.9559C121.622 23.9665 121.659 22.9652 121.623 21.952H126.373V42.5311H121.623C121.648 41.5784 121.623 40.6266 121.549 39.6766C120.398 40.698 119.112 41.5121 117.691 42.118C114.042 43.2824 110.752 42.6312 107.822 40.1649C106.228 38.5531 105.251 36.6131 104.891 34.3446C104.336 30.9993 105.078 27.995 107.117 25.3319C108.815 23.4399 110.905 22.2881 113.387 21.8768ZM119.361 30.5887C118.38 28.0312 116.537 26.83 113.832 26.9842C112.954 27.1354 112.162 27.4982 111.457 28.0731C110.094 29.5116 109.562 31.2265 109.863 33.2176C110.023 34.5819 110.604 35.7216 111.606 36.6356C113.375 37.8647 115.206 37.9641 117.097 36.9354C119.276 35.3527 120.031 33.2372 119.361 30.5887Z" fill="#DAEFF4"/>
<g clip-path="url(#clip0_1680_1936)">
<path d="M24.2721 0H27.6408L27.7272 14.294H51.9993V23.6532H48.285L48.1986 18.2079L3.88699 18.2484V23.6532H0V14.294L24.1857 14.209L24.2721 0Z" fill="#DAEFF4"/>
<path d="M48.3065 36.5898H52.1088V45.9537L0 45.9537V36.5898H3.8023V42.123H48.3065V36.5898Z" fill="#DAEFF4"/>
<ellipse cx="38.1648" cy="35.6693" rx="3.42461" ry="3.35583" fill="#DAEFF4"/>
<ellipse cx="13.7273" cy="35.6693" rx="3.42461" ry="3.35583" fill="#DAEFF4"/>
</g>
<defs>
<clipPath id="clip0_1680_1936">
<rect width="52" height="46" fill="white"/>
</clipPath>
</defs>
</svg>
